<svg id="visual" viewBox="0 0 900 600" width="900" height="600" xmlns="http://www.w3.org/2000/svg" xmlns:xlink="http://www.w3.org/1999/xlink" version="1.1"><path d="M0 85L13.7 89C27.3 93 54.7 101 82 107C109.3 113 136.7 117 163.8 112C191 107 218 93 245.2 90C272.3 87 299.7 95 327 100C354.3 105 381.7 107 409 111C436.3 115 463.7 121 491 112C518.3 103 545.7 79 573 67C600.3 55 627.7 55 654.8 59C682 63 709 71 736.2 73C763.3 75 790.7 71 818 77C845.3 83 872.7 99 886.3 107L900 115L900 0L886.3 0C872.7 0 845.3 0 818 0C790.7 0 763.3 0 736.2 0C709 0 682 0 654.8 0C627.7 0 600.3 0 573 0C545.7 0 518.3 0 491 0C463.7 0 436.3 0 409 0C381.7 0 354.3 0 327 0C299.7 0 272.3 0 245.2 0C218 0 191 0 163.8 0C136.7 0 109.3 0 82 0C54.7 0 27.3 0 13.7 0L0 0Z" fill="#6198ff"></path><path d="M0 277L13.7 287C27.3 297 54.7 317 82 312C109.3 307 136.7 277 163.8 263C191 249 218 251 245.2 259C272.3 267 299.7 281 327 290C354.3 299 381.7 303 409 311C436.3 319 463.7 331 491 329C518.3 327 545.7 311 573 291C600.3 271 627.7 247 654.8 238C682 229 709 235 736.2 253C763.3 271 790.7 301 818 311C845.3 321 872.7 311 886.3 306L900 301L900 113L886.3 105C872.7 97 845.3 81 818 75C790.7 69 763.3 73 736.2 71C709 69 682 61 654.8 57C627.7 53 600.3 53 573 65C545.7 77 518.3 101 491 110C463.7 119 436.3 113 409 109C381.7 105 354.3 103 327 98C299.7 93 272.3 85 245.2 88C218 91 191 105 163.8 110C136.7 115 109.3 111 82 105C54.7 99 27.3 91 13.7 87L0 83Z" fill="#005fee"></path><path d="M0 391L13.7 390C27.3 389 54.7 387 82 384C109.3 381 136.7 377 163.8 381C191 385 218 397 245.2 403C272.3 409 299.7 409 327 411C354.3 413 381.7 417 409 428C436.3 439 463.7 457 491 458C518.3 459 545.7 443 573 421C600.3 399 627.7 371 654.8 362C682 353 709 363 736.2 383C763.3 403 790.7 433 818 438C845.3 443 872.7 423 886.3 413L900 403L900 299L886.3 304C872.7 309 845.3 319 818 309C790.7 299 763.3 269 736.2 251C709 233 682 227 654.8 236C627.7 245 600.3 269 573 289C545.7 309 518.3 325 491 327C463.7 329 436.3 317 409 309C381.7 301 354.3 297 327 288C299.7 279 272.3 265 245.2 257C218 249 191 247 163.8 261C136.7 275 109.3 305 82 310C54.7 315 27.3 295 13.7 285L0 275Z" fill="#004cbb"></path><path d="M0 487L13.7 486C27.3 485 54.7 483 82 476C109.3 469 136.7 457 163.8 456C191 455 218 465 245.2 470C272.3 475 299.7 475 327 481C354.3 487 381.7 499 409 509C436.3 519 463.7 527 491 520C518.3 513 545.7 491 573 476C600.3 461 627.7 453 654.8 446C682 439 709 433 736.2 445C763.3 457 790.7 487 818 495C845.3 503 872.7 489 886.3 482L900 475L900 401L886.3 411C872.7 421 845.3 441 818 436C790.7 431 763.3 401 736.2 381C709 361 682 351 654.8 360C627.7 369 600.3 397 573 419C545.7 441 518.3 457 491 456C463.7 455 436.3 437 409 426C381.7 415 354.3 411 327 409C299.7 407 272.3 407 245.2 401C218 395 191 383 163.8 379C136.7 375 109.3 379 82 382C54.7 385 27.3 387 13.7 388L0 389Z" fill="#005fee"></path><path d="M0 601L13.7 601C27.3 601 54.7 601 82 601C109.3 601 136.7 601 163.8 601C191 601 218 601 245.2 601C272.3 601 299.7 601 327 601C354.3 601 381.7 601 409 601C436.3 601 463.7 601 491 601C518.3 601 545.7 601 573 601C600.3 601 627.7 601 654.8 601C682 601 709 601 736.2 601C763.3 601 790.7 601 818 601C845.3 601 872.7 601 886.3 601L900 601L900 473L886.3 480C872.7 487 845.3 501 818 493C790.7 485 763.3 455 736.2 443C709 431 682 437 654.8 444C627.7 451 600.3 459 573 474C545.7 489 518.3 511 491 518C463.7 525 436.3 517 409 507C381.7 497 354.3 485 327 479C299.7 473 272.3 473 245.2 468C218 463 191 453 163.8 454C136.7 455 109.3 467 82 474C54.7 481 27.3 483 13.7 484L0 485Z" fill="#6198ff"></path></svg>